# xmcd
#
# Track frame offsets:
#   150
#   16429
#   34660
#   50247
#   67324
#   81351
#   105875
#   124448
#   148089
#   163311
#   181015
#   194864
#   213026
#   238906
#
# Disc length: 3420 seconds
#
# Revision: 0
# Processed by: cddbd v1.5.2PL0 Copyright (c) Steve Scherf et al.
# Submitted via: GXTranscoder 2.0.1939
#
DISCID=d70d5a0e
DTITLE=The Gents - lace up. walk over.
DYEAR=1900
DGENRE=Reggae
TTITLE0=the gents hall
TTITLE1=Have you...
TTITLE2=noch viel zu oft
TTITLE3=age
TTITLE4=midnight castel
TTITLE5=alone
TTITLE6=mittendrin
TTITLE7=unausgesprochene bitte
TTITLE8=this is ska
TTITLE9=the way to china
TTITLE10=bye bye baby
TTITLE11=leaving the lonesome
TTITLE12=wicked business
TTITLE13=
EXTD=
EXTT0=
EXTT1=
EXTT2=
EXTT3=
EXTT4=
EXTT5=
EXTT6=
EXTT7=
EXTT8=
EXTT9=
EXTT10=
EXTT11=
EXTT12=
EXTT13=
PLAYORDER=
